# xmcd CD database file
#
# Track frame offsets:
#	150
#	16593
#	32351
#	49265
#	65055
#	81052
#	90572
#	109918
#
# Disc length: 1705 seconds
#
# Revision: 5
# Processed by: cddbd v1.5.2PL0 Copyright (c) Steve Scherf et al.
# Submitted via: CDex 1.51
#
DISCID=5806a708
DTITLE=Michael Bublé - Call Me Irresponsible [02]
DYEAR=2007
DGENRE=Big Band
TTITLE0=Stuck In The Middle With You
TTITLE1=Lost (International Pop Mix)
TTITLE2=Home (International Pop Mix)
TTITLE3=Orange Coloured Sky
TTITLE4=Everything (Bob Rock Mix)
TTITLE5=Let It Snow! Let It Snow! Let It Snow!
TTITLE6=The Christmas Song
TTITLE7=White Christmas
EXTD=YEAR: 2007
EXTT0=
EXTT1=
EXTT2=
EXTT3=
EXTT4=
EXTT5=
EXTT6=
EXTT7=
PLAYORDER=
